<mxfile host="app.diagrams.net" modified="2021-07-02T01:49:10.680Z" agent="5.0 (Windows NT 10.0; Win64; x64) AppleWebKit/537.36 (KHTML, like Gecko) Chrome/91.0.4472.124 Safari/537.36" etag="wo8XVsVHCGp4Thi1b3Mc" version="14.8.2" type="github" pages="3">
  <diagram id="C5RBs43oDa-KdzZeNtuy" name="While loop">
    <mxGraphModel dx="976" dy="587" grid="1" gridSize="10" guides="1" tooltips="1" connect="1" arrows="1" fold="1" page="1" pageScale="1" pageWidth="827" pageHeight="1169" math="0" shadow="0">
      <root>
        <mxCell id="WIyWlLk6GJQsqaUBKTNV-0" />
        <mxCell id="WIyWlLk6GJQsqaUBKTNV-1" parent="WIyWlLk6GJQsqaUBKTNV-0" />
        <mxCell id="WIyWlLk6GJQsqaUBKTNV-6" value="cond" style="rhombus;whiteSpace=wrap;html=1;shadow=0;fontFamily=Helvetica;fontSize=12;align=center;strokeWidth=1;spacing=6;spacingTop=-4;" parent="WIyWlLk6GJQsqaUBKTNV-1" vertex="1">
          <mxGeometry x="160" y="160" width="120" height="40" as="geometry" />
        </mxCell>
        <mxCell id="CMaS_ce-wyqdNl-4h3cf-0" value="A" style="rounded=0;whiteSpace=wrap;html=1;" parent="WIyWlLk6GJQsqaUBKTNV-1" vertex="1">
          <mxGeometry x="160" y="240" width="120" height="40" as="geometry" />
        </mxCell>
        <mxCell id="CMaS_ce-wyqdNl-4h3cf-1" value="B" style="rounded=0;whiteSpace=wrap;html=1;" parent="WIyWlLk6GJQsqaUBKTNV-1" vertex="1">
          <mxGeometry x="160" y="320" width="120" height="40" as="geometry" />
        </mxCell>
        <mxCell id="CMaS_ce-wyqdNl-4h3cf-2" value="C" style="rounded=0;whiteSpace=wrap;html=1;" parent="WIyWlLk6GJQsqaUBKTNV-1" vertex="1">
          <mxGeometry x="320" y="240" width="120" height="40" as="geometry" />
        </mxCell>
        <mxCell id="CMaS_ce-wyqdNl-4h3cf-3" value="" style="endArrow=classic;html=1;exitX=0.5;exitY=1;exitDx=0;exitDy=0;entryX=0.5;entryY=0;entryDx=0;entryDy=0;" parent="WIyWlLk6GJQsqaUBKTNV-1" source="WIyWlLk6GJQsqaUBKTNV-6" target="CMaS_ce-wyqdNl-4h3cf-0" edge="1">
          <mxGeometry width="50" height="50" relative="1" as="geometry">
            <mxPoint x="400" y="150" as="sourcePoint" />
            <mxPoint x="450" y="100" as="targetPoint" />
          </mxGeometry>
        </mxCell>
        <mxCell id="CMaS_ce-wyqdNl-4h3cf-4" value="" style="endArrow=classic;html=1;exitX=0.5;exitY=1;exitDx=0;exitDy=0;entryX=0.5;entryY=0;entryDx=0;entryDy=0;" parent="WIyWlLk6GJQsqaUBKTNV-1" source="CMaS_ce-wyqdNl-4h3cf-0" target="CMaS_ce-wyqdNl-4h3cf-1" edge="1">
          <mxGeometry width="50" height="50" relative="1" as="geometry">
            <mxPoint x="230" y="210" as="sourcePoint" />
            <mxPoint x="230" y="250" as="targetPoint" />
          </mxGeometry>
        </mxCell>
        <mxCell id="CMaS_ce-wyqdNl-4h3cf-5" value="" style="endArrow=classic;html=1;entryX=0.5;entryY=0;entryDx=0;entryDy=0;" parent="WIyWlLk6GJQsqaUBKTNV-1" target="CMaS_ce-wyqdNl-4h3cf-2" edge="1">
          <mxGeometry width="50" height="50" relative="1" as="geometry">
            <mxPoint x="380" y="180" as="sourcePoint" />
            <mxPoint x="390" y="230" as="targetPoint" />
          </mxGeometry>
        </mxCell>
        <mxCell id="CMaS_ce-wyqdNl-4h3cf-6" value="" style="endArrow=none;html=1;exitX=1;exitY=0.5;exitDx=0;exitDy=0;" parent="WIyWlLk6GJQsqaUBKTNV-1" source="WIyWlLk6GJQsqaUBKTNV-6" edge="1">
          <mxGeometry width="50" height="50" relative="1" as="geometry">
            <mxPoint x="390" y="270" as="sourcePoint" />
            <mxPoint x="380" y="180" as="targetPoint" />
          </mxGeometry>
        </mxCell>
        <mxCell id="CMaS_ce-wyqdNl-4h3cf-8" value="D" style="rounded=0;whiteSpace=wrap;html=1;" parent="WIyWlLk6GJQsqaUBKTNV-1" vertex="1">
          <mxGeometry x="160" y="420" width="120" height="40" as="geometry" />
        </mxCell>
        <mxCell id="CMaS_ce-wyqdNl-4h3cf-9" value="" style="endArrow=none;html=1;entryX=0.5;entryY=1;entryDx=0;entryDy=0;" parent="WIyWlLk6GJQsqaUBKTNV-1" target="CMaS_ce-wyqdNl-4h3cf-2" edge="1">
          <mxGeometry width="50" height="50" relative="1" as="geometry">
            <mxPoint x="380" y="400" as="sourcePoint" />
            <mxPoint x="400" y="350" as="targetPoint" />
          </mxGeometry>
        </mxCell>
        <mxCell id="CMaS_ce-wyqdNl-4h3cf-10" value="" style="endArrow=classic;html=1;" parent="WIyWlLk6GJQsqaUBKTNV-1" edge="1">
          <mxGeometry width="50" height="50" relative="1" as="geometry">
            <mxPoint x="120" y="140" as="sourcePoint" />
            <mxPoint x="220" y="140" as="targetPoint" />
          </mxGeometry>
        </mxCell>
        <mxCell id="CMaS_ce-wyqdNl-4h3cf-11" value="" style="endArrow=classic;html=1;entryX=0.5;entryY=0;entryDx=0;entryDy=0;" parent="WIyWlLk6GJQsqaUBKTNV-1" target="CMaS_ce-wyqdNl-4h3cf-8" edge="1">
          <mxGeometry width="50" height="50" relative="1" as="geometry">
            <mxPoint x="220" y="400" as="sourcePoint" />
            <mxPoint x="220" y="400" as="targetPoint" />
          </mxGeometry>
        </mxCell>
        <mxCell id="CMaS_ce-wyqdNl-4h3cf-12" value="" style="endArrow=classic;html=1;entryX=0.5;entryY=0;entryDx=0;entryDy=0;" parent="WIyWlLk6GJQsqaUBKTNV-1" source="CMaS_ce-wyqdNl-4h3cf-13" target="WIyWlLk6GJQsqaUBKTNV-6" edge="1">
          <mxGeometry width="50" height="50" relative="1" as="geometry">
            <mxPoint x="220" y="120" as="sourcePoint" />
            <mxPoint x="240" y="100" as="targetPoint" />
          </mxGeometry>
        </mxCell>
        <mxCell id="CMaS_ce-wyqdNl-4h3cf-13" value="Start" style="rounded=1;whiteSpace=wrap;html=1;" parent="WIyWlLk6GJQsqaUBKTNV-1" vertex="1">
          <mxGeometry x="160" y="80" width="120" height="40" as="geometry" />
        </mxCell>
        <mxCell id="CMaS_ce-wyqdNl-4h3cf-14" value="End" style="rounded=1;whiteSpace=wrap;html=1;" parent="WIyWlLk6GJQsqaUBKTNV-1" vertex="1">
          <mxGeometry x="160" y="500" width="120" height="40" as="geometry" />
        </mxCell>
        <mxCell id="CMaS_ce-wyqdNl-4h3cf-15" value="" style="endArrow=classic;html=1;exitX=0.5;exitY=1;exitDx=0;exitDy=0;entryX=0.5;entryY=0;entryDx=0;entryDy=0;" parent="WIyWlLk6GJQsqaUBKTNV-1" source="CMaS_ce-wyqdNl-4h3cf-8" target="CMaS_ce-wyqdNl-4h3cf-14" edge="1">
          <mxGeometry width="50" height="50" relative="1" as="geometry">
            <mxPoint x="60" y="490" as="sourcePoint" />
            <mxPoint x="110" y="440" as="targetPoint" />
          </mxGeometry>
        </mxCell>
        <mxCell id="CMaS_ce-wyqdNl-4h3cf-16" value="" style="endArrow=none;html=1;" parent="WIyWlLk6GJQsqaUBKTNV-1" edge="1">
          <mxGeometry width="50" height="50" relative="1" as="geometry">
            <mxPoint x="220" y="400" as="sourcePoint" />
            <mxPoint x="380" y="400" as="targetPoint" />
          </mxGeometry>
        </mxCell>
        <mxCell id="CMaS_ce-wyqdNl-4h3cf-17" value="" style="endArrow=none;html=1;exitX=0.5;exitY=1;exitDx=0;exitDy=0;" parent="WIyWlLk6GJQsqaUBKTNV-1" source="CMaS_ce-wyqdNl-4h3cf-1" edge="1">
          <mxGeometry width="50" height="50" relative="1" as="geometry">
            <mxPoint x="390" y="310" as="sourcePoint" />
            <mxPoint x="220" y="380" as="targetPoint" />
          </mxGeometry>
        </mxCell>
        <mxCell id="CMaS_ce-wyqdNl-4h3cf-18" value="" style="endArrow=none;html=1;" parent="WIyWlLk6GJQsqaUBKTNV-1" edge="1">
          <mxGeometry width="50" height="50" relative="1" as="geometry">
            <mxPoint x="220" y="380" as="sourcePoint" />
            <mxPoint x="120" y="380" as="targetPoint" />
          </mxGeometry>
        </mxCell>
        <mxCell id="CMaS_ce-wyqdNl-4h3cf-19" value="" style="endArrow=none;html=1;" parent="WIyWlLk6GJQsqaUBKTNV-1" edge="1">
          <mxGeometry width="50" height="50" relative="1" as="geometry">
            <mxPoint x="120" y="380" as="sourcePoint" />
            <mxPoint x="120" y="140" as="targetPoint" />
          </mxGeometry>
        </mxCell>
        <mxCell id="CMaS_ce-wyqdNl-4h3cf-20" value="Yes" style="text;html=1;strokeColor=none;fillColor=none;align=center;verticalAlign=middle;whiteSpace=wrap;rounded=0;" parent="WIyWlLk6GJQsqaUBKTNV-1" vertex="1">
          <mxGeometry x="180" y="200" width="40" height="20" as="geometry" />
        </mxCell>
        <mxCell id="CMaS_ce-wyqdNl-4h3cf-21" value="No" style="text;html=1;strokeColor=none;fillColor=none;align=center;verticalAlign=middle;whiteSpace=wrap;rounded=0;" parent="WIyWlLk6GJQsqaUBKTNV-1" vertex="1">
          <mxGeometry x="280" y="160" width="40" height="20" as="geometry" />
        </mxCell>
      </root>
    </mxGraphModel>
  </diagram>
  <diagram id="AzNR-LCGA-anIEFQ07g8" name="While and If (break)">
    <mxGraphModel dx="976" dy="587" grid="1" gridSize="10" guides="1" tooltips="1" connect="1" arrows="1" fold="1" page="1" pageScale="1" pageWidth="827" pageHeight="1169" math="0" shadow="0">
      <root>
        <mxCell id="NYB23FUaHP8SgG9C0Zs7-0" />
        <mxCell id="NYB23FUaHP8SgG9C0Zs7-1" parent="NYB23FUaHP8SgG9C0Zs7-0" />
        <mxCell id="2X29I4Cak6WuRwbtXqjq-0" value="cond" style="rhombus;whiteSpace=wrap;html=1;shadow=0;fontFamily=Helvetica;fontSize=12;align=center;strokeWidth=1;spacing=6;spacingTop=-4;" vertex="1" parent="NYB23FUaHP8SgG9C0Zs7-1">
          <mxGeometry x="160" y="100" width="120" height="40" as="geometry" />
        </mxCell>
        <mxCell id="2X29I4Cak6WuRwbtXqjq-1" value="A" style="rounded=0;whiteSpace=wrap;html=1;" vertex="1" parent="NYB23FUaHP8SgG9C0Zs7-1">
          <mxGeometry x="160" y="180" width="120" height="40" as="geometry" />
        </mxCell>
        <mxCell id="2X29I4Cak6WuRwbtXqjq-2" value="B" style="rounded=0;whiteSpace=wrap;html=1;" vertex="1" parent="NYB23FUaHP8SgG9C0Zs7-1">
          <mxGeometry x="160" y="340" width="120" height="40" as="geometry" />
        </mxCell>
        <mxCell id="2X29I4Cak6WuRwbtXqjq-3" value="C" style="rounded=0;whiteSpace=wrap;html=1;" vertex="1" parent="NYB23FUaHP8SgG9C0Zs7-1">
          <mxGeometry x="320" y="180" width="120" height="40" as="geometry" />
        </mxCell>
        <mxCell id="2X29I4Cak6WuRwbtXqjq-4" value="" style="endArrow=classic;html=1;exitX=0.5;exitY=1;exitDx=0;exitDy=0;entryX=0.5;entryY=0;entryDx=0;entryDy=0;" edge="1" parent="NYB23FUaHP8SgG9C0Zs7-1" source="2X29I4Cak6WuRwbtXqjq-0" target="2X29I4Cak6WuRwbtXqjq-1">
          <mxGeometry width="50" height="50" relative="1" as="geometry">
            <mxPoint x="400" y="90" as="sourcePoint" />
            <mxPoint x="450" y="40" as="targetPoint" />
          </mxGeometry>
        </mxCell>
        <mxCell id="2X29I4Cak6WuRwbtXqjq-5" value="" style="endArrow=classic;html=1;exitX=0.5;exitY=1;exitDx=0;exitDy=0;entryX=0.5;entryY=0;entryDx=0;entryDy=0;" edge="1" parent="NYB23FUaHP8SgG9C0Zs7-1" source="2X29I4Cak6WuRwbtXqjq-1" target="2X29I4Cak6WuRwbtXqjq-22">
          <mxGeometry width="50" height="50" relative="1" as="geometry">
            <mxPoint x="230" y="150" as="sourcePoint" />
            <mxPoint x="220" y="240" as="targetPoint" />
          </mxGeometry>
        </mxCell>
        <mxCell id="2X29I4Cak6WuRwbtXqjq-6" value="" style="endArrow=classic;html=1;entryX=0.5;entryY=0;entryDx=0;entryDy=0;" edge="1" parent="NYB23FUaHP8SgG9C0Zs7-1" target="2X29I4Cak6WuRwbtXqjq-3">
          <mxGeometry width="50" height="50" relative="1" as="geometry">
            <mxPoint x="380" y="120" as="sourcePoint" />
            <mxPoint x="390" y="170" as="targetPoint" />
          </mxGeometry>
        </mxCell>
        <mxCell id="2X29I4Cak6WuRwbtXqjq-7" value="" style="endArrow=none;html=1;exitX=1;exitY=0.5;exitDx=0;exitDy=0;" edge="1" parent="NYB23FUaHP8SgG9C0Zs7-1" source="2X29I4Cak6WuRwbtXqjq-0">
          <mxGeometry width="50" height="50" relative="1" as="geometry">
            <mxPoint x="390" y="210" as="sourcePoint" />
            <mxPoint x="380" y="120" as="targetPoint" />
          </mxGeometry>
        </mxCell>
        <mxCell id="2X29I4Cak6WuRwbtXqjq-8" value="D" style="rounded=0;whiteSpace=wrap;html=1;" vertex="1" parent="NYB23FUaHP8SgG9C0Zs7-1">
          <mxGeometry x="160" y="420" width="120" height="40" as="geometry" />
        </mxCell>
        <mxCell id="2X29I4Cak6WuRwbtXqjq-9" value="" style="endArrow=none;html=1;entryX=0.5;entryY=1;entryDx=0;entryDy=0;" edge="1" parent="NYB23FUaHP8SgG9C0Zs7-1" target="2X29I4Cak6WuRwbtXqjq-3">
          <mxGeometry width="50" height="50" relative="1" as="geometry">
            <mxPoint x="380" y="400" as="sourcePoint" />
            <mxPoint x="400" y="290" as="targetPoint" />
          </mxGeometry>
        </mxCell>
        <mxCell id="2X29I4Cak6WuRwbtXqjq-10" value="" style="endArrow=classic;html=1;" edge="1" parent="NYB23FUaHP8SgG9C0Zs7-1">
          <mxGeometry width="50" height="50" relative="1" as="geometry">
            <mxPoint x="120" y="80" as="sourcePoint" />
            <mxPoint x="220" y="80" as="targetPoint" />
          </mxGeometry>
        </mxCell>
        <mxCell id="2X29I4Cak6WuRwbtXqjq-11" value="" style="endArrow=classic;html=1;" edge="1" parent="NYB23FUaHP8SgG9C0Zs7-1">
          <mxGeometry width="50" height="50" relative="1" as="geometry">
            <mxPoint x="220" y="400" as="sourcePoint" />
            <mxPoint x="220" y="420" as="targetPoint" />
          </mxGeometry>
        </mxCell>
        <mxCell id="2X29I4Cak6WuRwbtXqjq-12" value="" style="endArrow=classic;html=1;entryX=0.5;entryY=0;entryDx=0;entryDy=0;" edge="1" parent="NYB23FUaHP8SgG9C0Zs7-1" source="2X29I4Cak6WuRwbtXqjq-13" target="2X29I4Cak6WuRwbtXqjq-0">
          <mxGeometry width="50" height="50" relative="1" as="geometry">
            <mxPoint x="220" y="60" as="sourcePoint" />
            <mxPoint x="240" y="40" as="targetPoint" />
          </mxGeometry>
        </mxCell>
        <mxCell id="2X29I4Cak6WuRwbtXqjq-13" value="Start" style="rounded=1;whiteSpace=wrap;html=1;" vertex="1" parent="NYB23FUaHP8SgG9C0Zs7-1">
          <mxGeometry x="160" y="20" width="120" height="40" as="geometry" />
        </mxCell>
        <mxCell id="2X29I4Cak6WuRwbtXqjq-14" value="End" style="rounded=1;whiteSpace=wrap;html=1;" vertex="1" parent="NYB23FUaHP8SgG9C0Zs7-1">
          <mxGeometry x="160" y="500" width="120" height="40" as="geometry" />
        </mxCell>
        <mxCell id="2X29I4Cak6WuRwbtXqjq-15" value="" style="endArrow=classic;html=1;exitX=0.5;exitY=1;exitDx=0;exitDy=0;entryX=0.5;entryY=0;entryDx=0;entryDy=0;" edge="1" parent="NYB23FUaHP8SgG9C0Zs7-1" source="2X29I4Cak6WuRwbtXqjq-8" target="2X29I4Cak6WuRwbtXqjq-14">
          <mxGeometry width="50" height="50" relative="1" as="geometry">
            <mxPoint x="60" y="490" as="sourcePoint" />
            <mxPoint x="110" y="440" as="targetPoint" />
          </mxGeometry>
        </mxCell>
        <mxCell id="2X29I4Cak6WuRwbtXqjq-19" value="" style="endArrow=none;html=1;" edge="1" parent="NYB23FUaHP8SgG9C0Zs7-1">
          <mxGeometry width="50" height="50" relative="1" as="geometry">
            <mxPoint x="120" y="280" as="sourcePoint" />
            <mxPoint x="120" y="80" as="targetPoint" />
          </mxGeometry>
        </mxCell>
        <mxCell id="2X29I4Cak6WuRwbtXqjq-20" value="Yes" style="text;html=1;strokeColor=none;fillColor=none;align=center;verticalAlign=middle;whiteSpace=wrap;rounded=0;" vertex="1" parent="NYB23FUaHP8SgG9C0Zs7-1">
          <mxGeometry x="180" y="140" width="40" height="20" as="geometry" />
        </mxCell>
        <mxCell id="2X29I4Cak6WuRwbtXqjq-21" value="No" style="text;html=1;strokeColor=none;fillColor=none;align=center;verticalAlign=middle;whiteSpace=wrap;rounded=0;" vertex="1" parent="NYB23FUaHP8SgG9C0Zs7-1">
          <mxGeometry x="280" y="100" width="40" height="20" as="geometry" />
        </mxCell>
        <mxCell id="2X29I4Cak6WuRwbtXqjq-22" value="cond_b" style="rhombus;whiteSpace=wrap;html=1;shadow=0;fontFamily=Helvetica;fontSize=12;align=center;strokeWidth=1;spacing=6;spacingTop=-4;" vertex="1" parent="NYB23FUaHP8SgG9C0Zs7-1">
          <mxGeometry x="160" y="260" width="120" height="40" as="geometry" />
        </mxCell>
        <mxCell id="2X29I4Cak6WuRwbtXqjq-24" value="" style="endArrow=none;html=1;exitX=0.5;exitY=1;exitDx=0;exitDy=0;" edge="1" parent="NYB23FUaHP8SgG9C0Zs7-1" source="2X29I4Cak6WuRwbtXqjq-2">
          <mxGeometry width="50" height="50" relative="1" as="geometry">
            <mxPoint x="380" y="410" as="sourcePoint" />
            <mxPoint x="220" y="400" as="targetPoint" />
          </mxGeometry>
        </mxCell>
        <mxCell id="2X29I4Cak6WuRwbtXqjq-25" value="" style="endArrow=classic;html=1;exitX=0.5;exitY=1;exitDx=0;exitDy=0;entryX=0.5;entryY=0;entryDx=0;entryDy=0;" edge="1" parent="NYB23FUaHP8SgG9C0Zs7-1" source="2X29I4Cak6WuRwbtXqjq-22" target="2X29I4Cak6WuRwbtXqjq-2">
          <mxGeometry width="50" height="50" relative="1" as="geometry">
            <mxPoint x="230" y="150" as="sourcePoint" />
            <mxPoint x="230" y="190" as="targetPoint" />
          </mxGeometry>
        </mxCell>
        <mxCell id="2X29I4Cak6WuRwbtXqjq-27" value="No" style="text;html=1;strokeColor=none;fillColor=none;align=center;verticalAlign=middle;whiteSpace=wrap;rounded=0;" vertex="1" parent="NYB23FUaHP8SgG9C0Zs7-1">
          <mxGeometry x="130" y="256" width="40" height="20" as="geometry" />
        </mxCell>
        <mxCell id="2X29I4Cak6WuRwbtXqjq-28" value="Yes" style="text;html=1;strokeColor=none;fillColor=none;align=center;verticalAlign=middle;whiteSpace=wrap;rounded=0;" vertex="1" parent="NYB23FUaHP8SgG9C0Zs7-1">
          <mxGeometry x="220" y="300" width="40" height="20" as="geometry" />
        </mxCell>
        <mxCell id="2X29I4Cak6WuRwbtXqjq-30" value="" style="endArrow=none;html=1;entryX=0;entryY=0.5;entryDx=0;entryDy=0;" edge="1" parent="NYB23FUaHP8SgG9C0Zs7-1" target="2X29I4Cak6WuRwbtXqjq-22">
          <mxGeometry width="50" height="50" relative="1" as="geometry">
            <mxPoint x="120" y="280" as="sourcePoint" />
            <mxPoint x="120" y="320" as="targetPoint" />
          </mxGeometry>
        </mxCell>
        <mxCell id="2X29I4Cak6WuRwbtXqjq-31" value="" style="endArrow=classic;html=1;" edge="1" parent="NYB23FUaHP8SgG9C0Zs7-1">
          <mxGeometry width="50" height="50" relative="1" as="geometry">
            <mxPoint x="380" y="400" as="sourcePoint" />
            <mxPoint x="220" y="400" as="targetPoint" />
          </mxGeometry>
        </mxCell>
      </root>
    </mxGraphModel>
  </diagram>
  <diagram name="While and If (continue)" id="GWzfnZy9R8eHXyTVXk3j">
    <mxGraphModel dx="976" dy="587" grid="1" gridSize="10" guides="1" tooltips="1" connect="1" arrows="1" fold="1" page="1" pageScale="1" pageWidth="827" pageHeight="1169" math="0" shadow="0">
      <root>
        <mxCell id="Y_3vikHhp7jrChk_Er0P-0" />
        <mxCell id="Y_3vikHhp7jrChk_Er0P-1" parent="Y_3vikHhp7jrChk_Er0P-0" />
        <mxCell id="Y_3vikHhp7jrChk_Er0P-2" value="cond" style="rhombus;whiteSpace=wrap;html=1;shadow=0;fontFamily=Helvetica;fontSize=12;align=center;strokeWidth=1;spacing=6;spacingTop=-4;" vertex="1" parent="Y_3vikHhp7jrChk_Er0P-1">
          <mxGeometry x="240" y="90" width="120" height="40" as="geometry" />
        </mxCell>
        <mxCell id="Y_3vikHhp7jrChk_Er0P-3" value="A" style="rounded=0;whiteSpace=wrap;html=1;" vertex="1" parent="Y_3vikHhp7jrChk_Er0P-1">
          <mxGeometry x="240" y="170" width="120" height="40" as="geometry" />
        </mxCell>
        <mxCell id="Y_3vikHhp7jrChk_Er0P-4" value="B" style="rounded=0;whiteSpace=wrap;html=1;" vertex="1" parent="Y_3vikHhp7jrChk_Er0P-1">
          <mxGeometry x="240" y="330" width="120" height="40" as="geometry" />
        </mxCell>
        <mxCell id="Y_3vikHhp7jrChk_Er0P-5" value="D" style="rounded=0;whiteSpace=wrap;html=1;" vertex="1" parent="Y_3vikHhp7jrChk_Er0P-1">
          <mxGeometry x="400" y="330" width="120" height="40" as="geometry" />
        </mxCell>
        <mxCell id="Y_3vikHhp7jrChk_Er0P-6" value="" style="endArrow=classic;html=1;exitX=0.5;exitY=1;exitDx=0;exitDy=0;entryX=0.5;entryY=0;entryDx=0;entryDy=0;" edge="1" parent="Y_3vikHhp7jrChk_Er0P-1" source="Y_3vikHhp7jrChk_Er0P-2" target="Y_3vikHhp7jrChk_Er0P-3">
          <mxGeometry width="50" height="50" relative="1" as="geometry">
            <mxPoint x="480" y="80" as="sourcePoint" />
            <mxPoint x="530" y="30" as="targetPoint" />
          </mxGeometry>
        </mxCell>
        <mxCell id="Y_3vikHhp7jrChk_Er0P-7" value="" style="endArrow=classic;html=1;exitX=0.5;exitY=1;exitDx=0;exitDy=0;entryX=0.5;entryY=0;entryDx=0;entryDy=0;" edge="1" parent="Y_3vikHhp7jrChk_Er0P-1" source="Y_3vikHhp7jrChk_Er0P-3" target="Y_3vikHhp7jrChk_Er0P-21">
          <mxGeometry width="50" height="50" relative="1" as="geometry">
            <mxPoint x="310" y="140" as="sourcePoint" />
            <mxPoint x="300" y="230" as="targetPoint" />
          </mxGeometry>
        </mxCell>
        <mxCell id="Y_3vikHhp7jrChk_Er0P-8" value="" style="endArrow=classic;html=1;entryX=0.5;entryY=0;entryDx=0;entryDy=0;" edge="1" parent="Y_3vikHhp7jrChk_Er0P-1" target="Y_3vikHhp7jrChk_Er0P-5">
          <mxGeometry width="50" height="50" relative="1" as="geometry">
            <mxPoint x="460" y="110" as="sourcePoint" />
            <mxPoint x="470" y="160" as="targetPoint" />
          </mxGeometry>
        </mxCell>
        <mxCell id="Y_3vikHhp7jrChk_Er0P-9" value="" style="endArrow=none;html=1;exitX=1;exitY=0.5;exitDx=0;exitDy=0;" edge="1" parent="Y_3vikHhp7jrChk_Er0P-1" source="Y_3vikHhp7jrChk_Er0P-2">
          <mxGeometry width="50" height="50" relative="1" as="geometry">
            <mxPoint x="470" y="200" as="sourcePoint" />
            <mxPoint x="460" y="110" as="targetPoint" />
          </mxGeometry>
        </mxCell>
        <mxCell id="Y_3vikHhp7jrChk_Er0P-10" value="E" style="rounded=0;whiteSpace=wrap;html=1;" vertex="1" parent="Y_3vikHhp7jrChk_Er0P-1">
          <mxGeometry x="400" y="410" width="120" height="40" as="geometry" />
        </mxCell>
        <mxCell id="Y_3vikHhp7jrChk_Er0P-12" value="" style="endArrow=classic;html=1;" edge="1" parent="Y_3vikHhp7jrChk_Er0P-1">
          <mxGeometry width="50" height="50" relative="1" as="geometry">
            <mxPoint x="40" y="70" as="sourcePoint" />
            <mxPoint x="300" y="70" as="targetPoint" />
          </mxGeometry>
        </mxCell>
        <mxCell id="Y_3vikHhp7jrChk_Er0P-13" value="" style="endArrow=classic;html=1;" edge="1" parent="Y_3vikHhp7jrChk_Er0P-1">
          <mxGeometry width="50" height="50" relative="1" as="geometry">
            <mxPoint x="460" y="390" as="sourcePoint" />
            <mxPoint x="460" y="410" as="targetPoint" />
          </mxGeometry>
        </mxCell>
        <mxCell id="Y_3vikHhp7jrChk_Er0P-14" value="" style="endArrow=classic;html=1;entryX=0.5;entryY=0;entryDx=0;entryDy=0;" edge="1" parent="Y_3vikHhp7jrChk_Er0P-1" source="Y_3vikHhp7jrChk_Er0P-15" target="Y_3vikHhp7jrChk_Er0P-2">
          <mxGeometry width="50" height="50" relative="1" as="geometry">
            <mxPoint x="300" y="50" as="sourcePoint" />
            <mxPoint x="320" y="30" as="targetPoint" />
          </mxGeometry>
        </mxCell>
        <mxCell id="Y_3vikHhp7jrChk_Er0P-15" value="Start" style="rounded=1;whiteSpace=wrap;html=1;" vertex="1" parent="Y_3vikHhp7jrChk_Er0P-1">
          <mxGeometry x="240" y="10" width="120" height="40" as="geometry" />
        </mxCell>
        <mxCell id="Y_3vikHhp7jrChk_Er0P-16" value="End" style="rounded=1;whiteSpace=wrap;html=1;" vertex="1" parent="Y_3vikHhp7jrChk_Er0P-1">
          <mxGeometry x="400" y="490" width="120" height="40" as="geometry" />
        </mxCell>
        <mxCell id="Y_3vikHhp7jrChk_Er0P-17" value="" style="endArrow=classic;html=1;exitX=0.5;exitY=1;exitDx=0;exitDy=0;entryX=0.5;entryY=0;entryDx=0;entryDy=0;" edge="1" parent="Y_3vikHhp7jrChk_Er0P-1" source="Y_3vikHhp7jrChk_Er0P-10" target="Y_3vikHhp7jrChk_Er0P-16">
          <mxGeometry width="50" height="50" relative="1" as="geometry">
            <mxPoint x="300" y="480" as="sourcePoint" />
            <mxPoint x="350" y="430" as="targetPoint" />
          </mxGeometry>
        </mxCell>
        <mxCell id="Y_3vikHhp7jrChk_Er0P-19" value="Yes" style="text;html=1;strokeColor=none;fillColor=none;align=center;verticalAlign=middle;whiteSpace=wrap;rounded=0;" vertex="1" parent="Y_3vikHhp7jrChk_Er0P-1">
          <mxGeometry x="260" y="130" width="40" height="20" as="geometry" />
        </mxCell>
        <mxCell id="Y_3vikHhp7jrChk_Er0P-20" value="No" style="text;html=1;strokeColor=none;fillColor=none;align=center;verticalAlign=middle;whiteSpace=wrap;rounded=0;" vertex="1" parent="Y_3vikHhp7jrChk_Er0P-1">
          <mxGeometry x="360" y="90" width="40" height="20" as="geometry" />
        </mxCell>
        <mxCell id="Y_3vikHhp7jrChk_Er0P-21" value="cond_b" style="rhombus;whiteSpace=wrap;html=1;shadow=0;fontFamily=Helvetica;fontSize=12;align=center;strokeWidth=1;spacing=6;spacingTop=-4;" vertex="1" parent="Y_3vikHhp7jrChk_Er0P-1">
          <mxGeometry x="240" y="250" width="120" height="40" as="geometry" />
        </mxCell>
        <mxCell id="Y_3vikHhp7jrChk_Er0P-22" value="" style="endArrow=none;html=1;exitX=0.5;exitY=1;exitDx=0;exitDy=0;" edge="1" parent="Y_3vikHhp7jrChk_Er0P-1">
          <mxGeometry width="50" height="50" relative="1" as="geometry">
            <mxPoint x="460" y="370" as="sourcePoint" />
            <mxPoint x="460" y="390" as="targetPoint" />
          </mxGeometry>
        </mxCell>
        <mxCell id="Y_3vikHhp7jrChk_Er0P-23" value="" style="endArrow=classic;html=1;exitX=0.5;exitY=1;exitDx=0;exitDy=0;entryX=0.5;entryY=0;entryDx=0;entryDy=0;" edge="1" parent="Y_3vikHhp7jrChk_Er0P-1" source="Y_3vikHhp7jrChk_Er0P-21" target="Y_3vikHhp7jrChk_Er0P-4">
          <mxGeometry width="50" height="50" relative="1" as="geometry">
            <mxPoint x="310" y="140" as="sourcePoint" />
            <mxPoint x="310" y="180" as="targetPoint" />
          </mxGeometry>
        </mxCell>
        <mxCell id="Y_3vikHhp7jrChk_Er0P-24" value="No" style="text;html=1;strokeColor=none;fillColor=none;align=center;verticalAlign=middle;whiteSpace=wrap;rounded=0;" vertex="1" parent="Y_3vikHhp7jrChk_Er0P-1">
          <mxGeometry x="210" y="246" width="40" height="20" as="geometry" />
        </mxCell>
        <mxCell id="Y_3vikHhp7jrChk_Er0P-25" value="Yes" style="text;html=1;strokeColor=none;fillColor=none;align=center;verticalAlign=middle;whiteSpace=wrap;rounded=0;" vertex="1" parent="Y_3vikHhp7jrChk_Er0P-1">
          <mxGeometry x="300" y="290" width="40" height="20" as="geometry" />
        </mxCell>
        <mxCell id="Y_3vikHhp7jrChk_Er0P-26" value="" style="endArrow=none;html=1;entryX=0;entryY=0.5;entryDx=0;entryDy=0;" edge="1" parent="Y_3vikHhp7jrChk_Er0P-1" target="Y_3vikHhp7jrChk_Er0P-21">
          <mxGeometry width="50" height="50" relative="1" as="geometry">
            <mxPoint x="140" y="270" as="sourcePoint" />
            <mxPoint x="200" y="310" as="targetPoint" />
          </mxGeometry>
        </mxCell>
        <mxCell id="kacLcxnP5JDlTROIWD78-1" value="C" style="rounded=0;whiteSpace=wrap;html=1;" vertex="1" parent="Y_3vikHhp7jrChk_Er0P-1">
          <mxGeometry x="80" y="330" width="120" height="40" as="geometry" />
        </mxCell>
        <mxCell id="kacLcxnP5JDlTROIWD78-2" value="" style="endArrow=classic;html=1;entryX=0.5;entryY=0;entryDx=0;entryDy=0;" edge="1" parent="Y_3vikHhp7jrChk_Er0P-1" target="kacLcxnP5JDlTROIWD78-1">
          <mxGeometry width="50" height="50" relative="1" as="geometry">
            <mxPoint x="140" y="270" as="sourcePoint" />
            <mxPoint x="110" y="180" as="targetPoint" />
          </mxGeometry>
        </mxCell>
        <mxCell id="kacLcxnP5JDlTROIWD78-3" value="" style="endArrow=none;html=1;" edge="1" parent="Y_3vikHhp7jrChk_Er0P-1">
          <mxGeometry width="50" height="50" relative="1" as="geometry">
            <mxPoint x="40" y="400" as="sourcePoint" />
            <mxPoint x="40" y="70" as="targetPoint" />
          </mxGeometry>
        </mxCell>
        <mxCell id="kacLcxnP5JDlTROIWD78-4" value="" style="endArrow=none;html=1;" edge="1" parent="Y_3vikHhp7jrChk_Er0P-1">
          <mxGeometry width="50" height="50" relative="1" as="geometry">
            <mxPoint x="40" y="400" as="sourcePoint" />
            <mxPoint x="300" y="400" as="targetPoint" />
          </mxGeometry>
        </mxCell>
        <mxCell id="kacLcxnP5JDlTROIWD78-5" value="" style="endArrow=classic;html=1;exitX=0.5;exitY=1;exitDx=0;exitDy=0;" edge="1" parent="Y_3vikHhp7jrChk_Er0P-1" source="kacLcxnP5JDlTROIWD78-1">
          <mxGeometry width="50" height="50" relative="1" as="geometry">
            <mxPoint x="320" y="410" as="sourcePoint" />
            <mxPoint x="140" y="400" as="targetPoint" />
          </mxGeometry>
        </mxCell>
        <mxCell id="kacLcxnP5JDlTROIWD78-6" value="" style="endArrow=none;html=1;entryX=0.5;entryY=1;entryDx=0;entryDy=0;" edge="1" parent="Y_3vikHhp7jrChk_Er0P-1" target="Y_3vikHhp7jrChk_Er0P-4">
          <mxGeometry width="50" height="50" relative="1" as="geometry">
            <mxPoint x="300" y="400" as="sourcePoint" />
            <mxPoint x="280" y="470" as="targetPoint" />
          </mxGeometry>
        </mxCell>
      </root>
    </mxGraphModel>
  </diagram>
</mxfile>
